<svg xmlns="http://www.w3.org/2000/svg" xmlns:xlink="http://www.w3.org/1999/xlink" fill="none" version="1.1" width="1600" height="964" viewBox="0 0 1600 964"><defs><clipPath id="master_svg0_7_10"><rect x="0" y="0" width="1600" height="500" rx="60"/></clipPath></defs><g><g clip-path="url(#master_svg0_7_10)"><rect x="0" y="0" width="1600" height="500" rx="60" fill="#1F1F1F" fill-opacity="1"/><g><rect x="85" y="51" width="400" height="400" rx="50" fill="#3D3D3D" fill-opacity="1"/></g><g><path d="M638.48,387L666.96,387L666.96,344.91999999999996L702.96,267.8L673.04,267.8L663.12,294.36C659.76,303.32,656.56,311.64,653.2,320.92L652.56,320.92C649.2,311.64,646.16,303.32,642.96,294.36L633.04,267.8L602.64,267.8L638.48,344.91999999999996L638.48,387ZM742,389.24C765.04,389.24,786.48,371.64,786.48,341.4C786.48,311.32,765.04,293.72,742,293.72C718.8,293.72,697.36,311.32,697.36,341.4C697.36,371.64,718.8,389.24,742,389.24ZM742,366.2C731.28,366.2,726.48,356.6,726.48,341.4C726.48,326.36,731.28,316.76,742,316.76C752.56,316.76,757.36,326.36,757.36,341.4C757.36,356.6,752.56,366.2,742,366.2ZM831.9200000000001,389.24C844.24,389.24,852.72,383.48,860.24,374.52L860.88,374.52L862.96,387L886.1600000000001,387L886.1600000000001,295.96L857.6800000000001,295.96L857.6800000000001,355.64C852.88,362.36,848.88,364.91999999999996,842.48,364.91999999999996C835.28,364.91999999999996,831.9200000000001,361.24,831.9200000000001,348.76L831.9200000000001,295.96L803.44,295.96L803.44,352.28C803.44,375,811.92,389.24,831.9200000000001,389.24ZM909.04,387L937.52,387L937.52,335C942.1600000000001,323,950.3199999999999,318.68,957.04,318.68C961.04,318.68,963.76,319.32,967.12,320.12L971.76,295.64C969.2,294.52,966.1600000000001,293.72,960.72,293.72C951.6,293.72,941.52,299.64,934.8,311.8L934.3199999999999,311.8L932.24,295.96L909.04,295.96L909.04,387ZM985.52,387L1012.72,387L1012.72,347.48C1012.72,333.08000000000004,1010.3199999999999,316.76,1009.04,303.48L1009.8399999999999,303.48L1021.52,329.56L1050.96,387L1080.08,387L1080.08,267.8L1052.88,267.8L1052.88,307.32C1052.88,321.56,1055.28,338.68,1056.72,351.32L1055.92,351.32L1044.24,324.92L1014.64,267.8L985.52,267.8L985.52,387ZM1128.56,389.24C1138.6399999999999,389.24,1147.12,384.6,1154.6399999999999,377.88L1155.44,377.88L1157.3600000000001,387L1180.56,387L1180.56,335.32C1180.56,306.84000000000003,1167.28,293.72,1143.76,293.72C1129.52,293.72,1116.56,298.52,1104.56,305.72L1114.48,324.44C1123.6,319.32,1131.12,316.44,1138.3200000000002,316.44C1147.6,316.44,1151.44,320.76,1152.08,328.12C1116.56,331.96000000000004,1101.52,342.36,1101.52,361.56C1101.52,376.76,1111.76,389.24,1128.56,389.24ZM1138.3200000000002,367.15999999999997C1132.4,367.15999999999997,1128.56,364.6,1128.56,359.32C1128.56,352.91999999999996,1134.3200000000002,347.64,1152.08,345.4L1152.08,359.96000000000004C1147.92,364.44,1144.08,367.15999999999997,1138.3200000000002,367.15999999999997ZM1202.48,387L1230.96,387L1230.96,326.2C1236.24,320.6,1241.2,318.04,1245.3600000000001,318.04C1252.56,318.04,1255.92,321.56,1255.92,334.2L1255.92,387L1284.4,387L1284.4,326.2C1289.8400000000001,320.6,1294.8,318.04,1298.96,318.04C1306.1599999999999,318.04,1309.3600000000001,321.56,1309.3600000000001,334.2L1309.3600000000001,387L1337.8400000000001,387L1337.8400000000001,330.68C1337.8400000000001,307.96,1329.2,293.72,1309.3600000000001,293.72C1297.2,293.72,1288.72,300.76,1280.88,308.76C1276.24,299,1268.56,293.72,1255.92,293.72C1243.6,293.72,1235.76,299.96,1228.24,307.48L1227.76,307.48L1225.6799999999998,295.96L1202.48,295.96L1202.48,387ZM1401.3600000000001,389.24C1411.92,389.24,1424.4,385.56,1433.8400000000001,378.84000000000003L1424.4,361.72C1417.8400000000001,365.56,1411.76,367.48,1405.2,367.48C1393.6799999999998,367.48,1385.04,362.36,1382.48,349.88L1435.92,349.88C1436.56,347.64,1437.2,342.68,1437.2,337.56C1437.2,312.76,1424.4,293.72,1398.1599999999999,293.72C1376.24,293.72,1354.96,311.96,1354.96,341.4C1354.96,371.64,1375.12,389.24,1401.3600000000001,389.24ZM1382,331.15999999999997C1383.92,320.44,1390.8,315.48,1398.6399999999999,315.48C1409.04,315.48,1413.04,322.2,1413.04,331.15999999999997L1382,331.15999999999997Z" fill="#FFFFFF" fill-opacity="1"/></g><g><path d="M574.48,207L585.64,207L594.16,180.12L626.32,180.12L634.72,207L646.48,207L616.6,119.03999999999999L604.24,119.03999999999999L574.48,207ZM596.92,171.36L601.24,157.8C604.36,147.84,607.24,138.36,610,128.04L610.48,128.04C613.36,138.24,616.12,147.84,619.36,157.8L623.56,171.36L596.92,171.36ZM676.24,208.56C685.12,208.56,691.6,203.88,697.72,196.8L698.08,196.8L698.92,207L708.04,207L708.04,141.84L697.12,141.84L697.12,188.04000000000002C690.88,195.72,686.2,199.08,679.48,199.08C670.84,199.08,667.24,193.92000000000002,667.24,181.8L667.24,141.84L656.2,141.84L656.2,183.12C656.2,199.8,662.44,208.56,676.24,208.56ZM750.4,208.56C754.48,208.56,758.8,207.36,762.52,206.16L760.36,197.88C758.2,198.84,755.3199999999999,199.68,752.92,199.68C745.36,199.68,742.84,195.12,742.84,187.2L742.84,150.72L760.6,150.72L760.6,141.84L742.84,141.84L742.84,123.47999999999999L733.72,123.47999999999999L732.52,141.84L722.2,142.44L722.2,150.72L731.92,150.72L731.92,186.84C731.92,199.92,736.6,208.56,750.4,208.56ZM775.24,207L786.28,207L786.28,159.72C792.76,153.12,797.3199999999999,149.76,804.04,149.76C812.6800000000001,149.76,816.4,154.92000000000002,816.4,167.16L816.4,207L827.3199999999999,207L827.3199999999999,165.72C827.3199999999999,149.16,821.08,140.16,807.4,140.16C798.52,140.16,791.8,145.07999999999998,785.8,151.07999999999998L786.28,137.64L786.28,111.47999999999999L775.24,111.47999999999999L775.24,207ZM873.4,208.56C889.36,208.56,903.52,196.08,903.52,174.48000000000002C903.52,152.76,889.36,140.16,873.4,140.16C857.44,140.16,843.28,152.76,843.28,174.48000000000002C843.28,196.08,857.44,208.56,873.4,208.56ZM873.4,199.44C862.12,199.44,854.56,189.48000000000002,854.56,174.48000000000002C854.56,159.48000000000002,862.12,149.4,873.4,149.4C884.6800000000001,149.4,892.36,159.48000000000002,892.36,174.48000000000002C892.36,189.48000000000002,884.6800000000001,199.44,873.4,199.44ZM920.8,207L931.8399999999999,207L931.8399999999999,165.12C936.1600000000001,154.07999999999998,942.76,150,948.1600000000001,150C950.9200000000001,150,952.36,150.36,954.52,151.07999999999998L956.56,141.6C954.52,140.51999999999998,952.48,140.16,949.6,140.16C942.4,140.16,935.6800000000001,145.44,931.12,153.72L930.88,153.72L929.8,141.84L920.8,141.84L920.8,207ZM976.48,160.2C980.8,160.2,984.4,156.84,984.4,151.8C984.4,146.88,980.8,143.4,976.48,143.4C972.04,143.4,968.56,146.88,968.56,151.8C968.56,156.84,972.04,160.2,976.48,160.2ZM976.48,208.56C980.8,208.56,984.4,205.2,984.4,200.28C984.4,195.24,980.8,191.88,976.48,191.88C972.04,191.88,968.56,195.24,968.56,200.28C968.56,205.2,972.04,208.56,976.48,208.56Z" fill="#FFFFFF" fill-opacity="0.6000000238418579"/></g></g><g><g><rect x="0" y="539" width="1600" height="425" rx="60" fill="#1D1D1D" fill-opacity="1"/></g><g><path d="M489.752,570.384C486.152,580.968,480.32,591.408,473.84,598.176C475.064,599.04,477.152,600.912,478.016,601.848C481.688,597.816,485.216,592.56,488.312,586.728L493.28,586.728L493.28,635.688L498.752,635.688L498.752,618.192L520.424,618.192L520.424,613.08L498.752,613.08L498.752,602.136L519.488,602.136L519.488,597.168L498.752,597.168L498.752,586.728L521.144,586.728L521.144,581.544L490.904,581.544C492.416,578.376,493.784,575.064,494.936,571.752L489.752,570.384ZM472.4,569.808C468.368,580.752,461.6,591.552,454.472,598.5360000000001C455.48,599.76,457.064,602.712,457.64,603.936C460.088,601.4159999999999,462.464,598.5360000000001,464.768,595.368L464.768,635.616L470.168,635.616L470.168,586.872C472.976,581.976,475.568,576.648,477.584,571.392L472.4,569.808ZM584.144,571.968C581.624,575.28,578.888,578.52,575.864,581.544L575.864,578.592L557.936,578.592L557.936,569.52L552.608,569.52L552.608,578.592L534.104,578.592L534.104,583.344L552.608,583.344L552.608,592.632L527.768,592.632L527.768,597.528L555.992,597.528C546.848,603.432,536.696,608.256,526.184,611.856C527.264,613.008,528.92,615.24,529.64,616.392C534.104,614.664,538.568,612.792,542.888,610.632L542.888,635.76L548.288,635.76L548.288,633.384L577.592,633.384L577.592,635.472L583.136,635.472L583.136,605.088L553.256,605.088C557.216,602.712,561.104,600.192,564.848,597.528L591.992,597.528L591.992,592.632L571.184,592.632C577.736,587.16,583.712,581.112,588.752,574.488L584.144,571.968ZM557.936,592.632L557.936,583.344L574.064,583.344C570.68,586.656,567.008,589.752,563.048,592.632L557.936,592.632ZM548.288,621.144L577.592,621.144L577.592,628.704L548.288,628.704L548.288,621.144ZM548.288,616.824L548.288,609.696L577.592,609.696L577.592,616.824L548.288,616.824ZM634.328,613.296C642.032,616.392,652.616,621.144,658.016,623.952L660.968,619.2C655.424,616.392,644.624,612,637.136,609.12L634.328,613.296ZM627.488,569.52L627.488,596.016L599.624,596.016L599.624,601.344L627.704,601.344L627.704,635.76L633.32,635.76L633.32,601.344L664.208,601.344L664.208,596.016L633.104,596.016L633.104,584.928L656.936,584.928L656.936,579.744L633.104,579.744L633.104,569.52L627.488,569.52ZM680.84,571.392L680.84,595.368C680.84,608.112,679.832,621.432,670.616,631.656C671.984,632.592,673.928,634.608,674.864,635.904C681.488,628.6320000000001,684.44,619.848,685.592,610.776L715.976,610.776L715.976,635.76L721.808,635.76L721.808,605.232L686.168,605.232C686.384,601.92,686.456,598.68,686.456,595.368L686.456,593.712L732.896,593.712L732.896,588.168L712.592,588.168L712.592,569.592L706.904,569.592L706.904,588.168L686.456,588.168L686.456,571.392L680.84,571.392ZM763.424,650.088L768.032,650.088L768.032,569.664L763.424,569.664L763.424,650.088ZM829.448,570.384C825.848,580.968,820.016,591.408,813.536,598.176C814.76,599.04,816.848,600.912,817.712,601.848C821.384,597.816,824.912,592.56,828.008,586.728L832.976,586.728L832.976,635.688L838.448,635.688L838.448,618.192L860.12,618.192L860.12,613.08L838.448,613.08L838.448,602.136L859.184,602.136L859.184,597.168L838.448,597.168L838.448,586.728L860.84,586.728L860.84,581.544L830.6,581.544C832.112,578.376,833.48,575.064,834.632,571.752L829.448,570.384ZM812.096,569.808C808.064,580.752,801.296,591.552,794.168,598.5360000000001C795.176,599.76,796.76,602.712,797.336,603.936C799.784,601.4159999999999,802.16,598.5360000000001,804.464,595.368L804.464,635.616L809.864,635.616L809.864,586.872C812.672,581.976,815.264,576.648,817.28,571.392L812.096,569.808ZM923.84,571.968C921.32,575.28,918.584,578.52,915.56,581.544L915.56,578.592L897.632,578.592L897.632,569.52L892.304,569.52L892.304,578.592L873.8,578.592L873.8,583.344L892.304,583.344L892.304,592.632L867.464,592.632L867.464,597.528L895.688,597.528C886.544,603.432,876.392,608.256,865.88,611.856C866.96,613.008,868.616,615.24,869.336,616.392C873.8,614.664,878.264,612.792,882.584,610.632L882.584,635.76L887.984,635.76L887.984,633.384L917.288,633.384L917.288,635.472L922.832,635.472L922.832,605.088L892.952,605.088C896.912,602.712,900.8,600.192,904.544,597.528L931.688,597.528L931.688,592.632L910.88,592.632C917.432,587.16,923.408,581.112,928.448,574.488L923.84,571.968ZM897.632,592.632L897.632,583.344L913.76,583.344C910.376,586.656,906.704,589.752,902.744,592.632L897.632,592.632ZM887.984,621.144L917.288,621.144L917.288,628.704L887.984,628.704L887.984,621.144ZM887.984,616.824L887.984,609.696L917.288,609.696L917.288,616.824L887.984,616.824ZM953.576,595.008C956.456,595.008,959.048,592.92,959.048,589.68C959.048,586.368,956.456,584.208,953.576,584.208C950.696,584.208,948.104,586.368,948.104,589.68C948.104,592.92,950.696,595.008,953.576,595.008ZM953.576,630.288C956.456,630.288,959.048,628.128,959.048,624.888C959.048,621.576,956.456,619.488,953.576,619.488C950.696,619.488,948.104,621.576,948.104,624.888C948.104,628.128,950.696,630.288,953.576,630.288ZM1014.85,630L1020.82,630L1020.82,600.768C1020.82,596.232,1020.39,589.824,1019.96,585.216L1020.25,585.216L1024.5,597.24L1034.5,624.672L1038.97,624.672L1048.9,597.24L1053.15,585.216L1053.44,585.216C1053.08,589.824,1052.58,596.232,1052.58,600.768L1052.58,630L1058.77,630L1058.77,577.224L1050.78,577.224L1040.7,605.448C1039.47,609.048,1038.39,612.792,1037.02,616.4639999999999L1036.74,616.4639999999999C1035.44,612.792,1034.29,609.048,1032.92,605.448L1022.84,577.224L1014.85,577.224L1014.85,630ZM1073.31,630L1079.94,630L1079.94,606.312L1100.1,606.312L1100.1,600.696L1079.94,600.696L1079.94,582.84L1103.7,582.84L1103.7,577.224L1073.31,577.224L1073.31,630ZM1110.82,630L1117.45,630L1117.45,601.632C1121.34,597.672,1124.07,595.656,1128.1,595.656C1133.29,595.656,1135.52,598.752,1135.52,606.096L1135.52,630L1142.07,630L1142.07,605.232C1142.07,595.296,1138.33,589.896,1130.12,589.896C1124.79,589.896,1120.69,592.848,1117.02,596.592L1116.87,596.592L1116.22,590.904L1110.82,590.904L1110.82,630ZM176.048,678.4159999999999C179.792,681.8,184.544,686.552,186.776,689.576L190.448,685.76C188.216,682.808,183.32,678.344,179.504,675.104L176.048,678.4159999999999ZM171.368,696.1279999999999L171.368,701.312L182.168,701.312L182.168,727.664C182.168,730.832,180.008,732.992,178.712,733.856C179.648,734.936,181.088,737.168,181.592,738.4639999999999C182.6,736.952,184.472,735.44,196.64,726.08C196.064,725,195.2,722.912,194.84,721.472L187.352,727.088L187.352,696.1279999999999L171.368,696.1279999999999ZM203.912,718.736L226.52,718.736L226.52,724.64L203.912,724.64L203.912,718.736ZM203.912,714.92L203.912,709.376L226.52,709.376L226.52,714.92L203.912,714.92ZM212.552,673.52L212.552,679.136L195.848,679.136L195.848,683.312L212.552,683.312L212.552,687.92L197.648,687.92L197.648,691.88L212.552,691.88L212.552,696.848L193.688,696.848L193.688,701.024L237.464,701.024L237.464,696.848L217.88,696.848L217.88,691.88L233.072,691.88L233.072,687.92L217.88,687.92L217.88,683.312L235.232,683.312L235.232,679.136L217.88,679.136L217.88,673.52L212.552,673.52ZM198.872,705.2L198.872,739.688L203.912,739.688L203.912,728.6L226.52,728.6L226.52,733.64C226.52,734.504,226.16,734.792,225.224,734.864C224.216,734.936,220.76,734.936,217.088,734.792C217.808,736.088,218.456,738.104,218.672,739.472C223.784,739.472,227.096,739.472,229.04,738.608C231.128,737.816,231.704,736.376,231.704,733.712L231.704,705.2L198.872,705.2ZM268.496,673.52C267.488,677.192,266.192,681.008,264.68,684.6800000000001L244.88,684.6800000000001L244.88,689.864L262.304,689.864C257.696,699.08,251.36,707.648,243.08,713.408C243.944,714.6320000000001,245.312,716.936,245.888,718.376C248.912,716.216,251.72,713.768,254.24,711.104L254.24,739.472L259.64,739.472L259.64,704.696C263.024,700.088,265.976,695.048,268.424,689.864L307.952,689.864L307.952,684.6800000000001L270.656,684.6800000000001C271.952,681.44,273.104,678.1279999999999,274.112,674.888L268.496,673.52ZM283.4,693.608L283.4,707.504L267.2,707.504L267.2,712.544L283.4,712.544L283.4,732.992L264.32,732.992L264.32,738.032L307.88,738.032L307.88,732.992L288.8,732.992L288.8,712.544L305.144,712.544L305.144,707.504L288.8,707.504L288.8,693.608L283.4,693.608ZM335.744,734L342.368,734L342.368,712.976L351.08,712.976C362.672,712.976,370.52,707.864,370.52,696.704C370.52,685.184,362.6,681.2239999999999,350.792,681.2239999999999L335.744,681.2239999999999L335.744,734ZM342.368,707.576L342.368,686.624L349.928,686.624C359.216,686.624,363.896,689,363.896,696.704C363.896,704.264,359.504,707.576,350.216,707.576L342.368,707.576ZM395.144,734.936C406.16,734.936,413.072,728.312,413.072,719.96C413.072,712.112,408.32,708.512,402.2,705.848L394.712,702.608C390.608,700.88,385.928,698.936,385.928,693.752C385.928,689.072,389.816,686.12,395.792,686.12C400.688,686.12,404.576,687.992,407.816,691.016L411.272,686.768C407.6,682.952,402.056,680.288,395.792,680.288C386.216,680.288,379.16,686.12,379.16,694.256C379.16,701.96,384.992,705.704,389.888,707.792L397.448,711.104C402.488,713.336,406.304,715.064,406.304,720.5360000000001C406.304,725.648,402.2,729.104,395.216,729.104C389.744,729.104,384.416,726.512,380.672,722.552L376.712,727.16C381.248,731.912,387.656,734.936,395.144,734.936ZM435.824,738.032L440.72,733.856C436.256,728.6,429.776,722.048,424.592,717.8720000000001L419.912,721.976C425.024,726.152,431.216,732.344,435.824,738.032ZM495.44,734L502.064,734L502.064,710.312L522.224,710.312L522.224,704.696L502.064,704.696L502.064,686.84L525.824,686.84L525.824,681.2239999999999L495.44,681.2239999999999L495.44,734ZM534.536,734L541.16,734L541.16,694.904L534.536,694.904L534.536,734ZM537.848,686.84C540.44,686.84,542.24,685.112,542.24,682.448C542.24,679.928,540.44,678.2,537.848,678.2C535.256,678.2,533.528,679.928,533.528,682.448C533.528,685.112,535.256,686.84,537.848,686.84ZM567.512,752C579.608,752,587.312,745.736,587.312,738.4639999999999C587.312,731.984,582.704,729.1759999999999,573.704,729.1759999999999L566,729.1759999999999C560.744,729.1759999999999,559.16,727.376,559.16,724.928C559.16,722.768,560.24,721.472,561.68,720.248C563.408,721.112,565.568,721.616,567.44,721.616C575.504,721.616,581.768,716.36,581.768,708.008C581.768,704.624,580.472,701.744,578.6,699.944L586.592,699.944L586.592,694.904L572.984,694.904C571.616,694.328,569.672,693.896,567.44,693.896C559.592,693.896,552.824,699.296,552.824,707.864C552.824,712.544,555.344,716.36,557.936,718.376L557.936,718.664C555.848,720.104,553.616,722.696,553.616,725.936C553.616,729.032,555.128,731.12,557.144,732.344L557.144,732.704C553.472,734.936,551.384,738.1759999999999,551.384,741.56C551.384,748.256,558.008,752,567.512,752ZM567.44,717.152C562.976,717.152,559.16,713.552,559.16,707.864C559.16,702.104,562.904,698.72,567.44,698.72C572.12,698.72,575.792,702.104,575.792,707.864C575.792,713.552,571.976,717.152,567.44,717.152ZM568.448,747.4639999999999C561.32,747.4639999999999,557.144,744.8,557.144,740.624C557.144,738.392,558.296,736.016,561.104,734C562.832,734.432,564.704,734.576,566.144,734.576L572.912,734.576C578.096,734.576,580.832,735.8720000000001,580.832,739.544C580.832,743.576,576.008,747.4639999999999,568.448,747.4639999999999ZM594.944,734L601.568,734L601.568,705.6320000000001C605.096,701.6,608.408,699.656,611.36,699.656C616.328,699.656,618.632,702.752,618.632,710.096L618.632,734L625.184,734L625.184,705.6320000000001C628.856,701.6,632.024,699.656,635.048,699.656C640.016,699.656,642.32,702.752,642.32,710.096L642.32,734L648.872,734L648.872,709.232C648.872,699.296,645.056,693.896,637.064,693.896C632.24,693.896,628.208,696.992,624.104,701.384C622.52,696.7760000000001,619.352,693.896,613.304,693.896C608.624,693.896,604.592,696.848,601.136,700.592L600.992,700.592L600.344,694.904L594.944,694.904L594.944,734ZM670.616,734.936C675.44,734.936,679.832,732.4159999999999,683.576,729.3199999999999L683.792,729.3199999999999L684.368,734L689.768,734L689.768,709.952C689.768,700.232,685.808,693.896,676.232,693.896C669.896,693.896,664.424,696.704,660.896,699.008L663.416,703.544C666.512,701.456,670.616,699.3679999999999,675.152,699.3679999999999C681.56,699.3679999999999,683.216,704.192,683.216,709.232C666.584,711.104,659.24,715.352,659.24,723.848C659.24,730.904,664.064,734.936,670.616,734.936ZM672.488,729.608C668.6,729.608,665.576,727.88,665.576,723.4159999999999C665.576,718.376,670.04,715.136,683.216,713.624L683.216,724.496C679.4,727.88,676.232,729.608,672.488,729.608ZM753.272,673.16C751.184,679.28,747.296,685.04,742.832,688.784L744.776,690.008L744.776,694.976L722.24,694.976L722.24,699.512L744.776,699.512L744.776,705.992L715.112,705.992L715.112,710.744L759.536,710.744L759.536,717.08L717.416,717.08L717.416,721.832L759.536,721.832L759.536,733.28C759.536,734.288,759.176,734.576,757.88,734.648C756.584,734.72,752.336,734.72,747.44,734.576C748.232,736.016,749.168,738.1759999999999,749.456,739.688C755.36,739.688,759.392,739.616,761.84,738.896C764.288,738.032,765.008,736.52,765.008,733.352L765.008,721.832L778.544,721.832L778.544,717.08L765.008,717.08L765.008,710.744L780.488,710.744L780.488,705.992L750.32,705.992L750.32,699.512L773.648,699.512L773.648,694.976L750.32,694.976L750.32,690.008L749.168,690.008C750.752,688.28,752.264,686.336,753.632,684.1759999999999L758.528,684.1759999999999C760.688,686.984,762.776,690.3679999999999,763.64,692.744L768.32,690.7280000000001C767.528,688.856,766.016,686.48,764.36,684.1759999999999L779.696,684.1759999999999L779.696,679.568L756.224,679.568C757.088,677.912,757.808,676.184,758.456,674.384L753.272,673.16ZM727.712,724.928C732.392,728.024,737.576,732.6320000000001,739.952,736.016L744.128,732.6320000000001C741.68,729.248,736.352,724.784,731.672,721.832L727.712,724.928ZM725.048,673.16C722.6,679.568,718.568,685.832,714.032,690.08C715.328,690.7280000000001,717.56,692.24,718.568,693.104C720.944,690.7280000000001,723.248,687.6320000000001,725.408,684.1759999999999L728.288,684.1759999999999C729.656,686.984,730.952,690.2239999999999,731.384,692.384L736.208,690.5840000000001C735.776,688.928,734.768,686.48,733.688,684.1759999999999L746.792,684.1759999999999L746.792,679.568L727.928,679.568C728.72,677.912,729.512,676.256,730.16,674.528L725.048,673.16ZM826.208,673.448C824.696,684.6800000000001,821.816,695.264,816.848,702.032C818.072,702.6800000000001,820.376,704.192,821.312,705.056C824.192,700.88,826.424,695.552,828.224,689.504L846.728,689.504C845.72,694.544,844.496,699.944,843.488,703.472L847.808,704.768C849.464,699.8720000000001,851.264,692.096,852.704,685.4L849.104,684.392L848.456,684.5360000000001L829.52,684.5360000000001C830.312,681.2239999999999,830.96,677.768,831.464,674.24L826.208,673.448ZM831.464,696.344L831.464,699.656C831.464,709.736,830.456,724.712,814.976,736.16C816.344,736.952,818.216,738.6800000000001,819.08,739.832C827.864,733.064,832.328,725.144,834.56,717.5840000000001C837.584,727.448,842.336,735.44,849.536,739.688C850.328,738.3199999999999,851.984,736.304,853.208,735.296C844.208,730.544,839.024,719.24,836.504,706.352C836.648,703.976,836.72,701.744,836.72,699.7280000000001L836.72,696.344L831.464,696.344ZM790.424,710.096C791,709.52,793.304,709.088,796.04,709.088L803.672,709.088L803.672,719.528L786.464,721.904L787.688,727.376L803.672,724.856L803.672,739.472L808.568,739.472L808.568,723.992L818.36,722.408L818.144,717.3679999999999L808.568,718.808L808.568,709.088L817.64,709.088L817.64,704.192L808.568,704.192L808.568,693.4639999999999L803.672,693.4639999999999L803.672,704.192L795.752,704.192C798.128,699.2239999999999,800.504,693.3199999999999,802.592,687.2L818.072,687.2L818.072,682.016L804.32,682.016C805.04,679.64,805.76,677.192,806.408,674.816L801.08,673.664C800.504,676.472,799.784,679.28,798.92,682.016L787.256,682.016L787.256,687.2L797.336,687.2C795.464,692.96,793.52,697.712,792.584,699.512C791.216,702.752,790.064,704.984,788.696,705.344C789.272,706.64,790.136,709.016,790.424,710.096ZM878.48,709.448L878.48,714.704L899.144,714.704L899.144,739.76L904.544,739.76L904.544,714.704L924.272,714.704L924.272,709.448L904.544,709.448L904.544,693.5360000000001L921.104,693.5360000000001L921.104,688.28L904.544,688.28L904.544,674.384L899.144,674.384L899.144,688.28L889.496,688.28C890.432,685.04,891.224,681.5840000000001,891.944,678.2L886.76,677.12C885.104,686.552,882.08,695.84,877.904,701.816C879.2,702.4639999999999,881.504,703.76,882.512,704.552C884.456,701.528,886.256,697.712,887.768,693.5360000000001L899.144,693.5360000000001L899.144,709.448L878.48,709.448ZM874.952,673.808C871.064,684.6800000000001,864.728,695.48,857.96,702.5360000000001C858.896,703.76,860.48,706.568,861.056,707.864C863.36,705.4159999999999,865.52,702.5360000000001,867.68,699.44L867.68,739.616L872.864,739.616L872.864,691.016C875.6,685.976,878.048,680.648,880.064,675.3199999999999L874.952,673.808ZM960.632,673.52L960.632,686.408L934.568,686.408L934.568,720.608L939.968,720.608L939.968,716.144L960.632,716.144L960.632,739.688L966.32,739.688L966.32,716.144L987.056,716.144L987.056,720.248L992.6,720.248L992.6,686.408L966.32,686.408L966.32,673.52L960.632,673.52ZM939.968,710.816L939.968,691.664L960.632,691.664L960.632,710.816L939.968,710.816ZM987.056,710.816L966.32,710.816L966.32,691.664L987.056,691.664L987.056,710.816ZM1049.91,706.208C1046.02,709.952,1038.75,713.336,1032.34,715.28C1033.35,716.144,1034.65,717.44,1035.37,718.52C1042.21,716.216,1049.62,712.472,1054.02,707.936L1049.91,706.208ZM1056.82,713.336C1051.93,718.448,1042.42,722.552,1033.28,724.64C1034.36,725.648,1035.44,727.16,1036.09,728.24C1045.81,725.576,1055.38,721.112,1060.86,715.064L1056.82,713.336ZM1063.52,721.112C1057.11,728.528,1043.86,733.136,1029.39,735.2239999999999C1030.47,736.376,1031.62,738.248,1032.2,739.544C1047.46,736.88,1061,731.696,1068.2,723.1279999999999L1063.52,721.112ZM1021.69,693.608L1021.69,728.384L1026.3,728.384L1026.3,693.608L1021.69,693.608ZM1039.47,685.904L1059.56,685.904C1057.11,689.864,1053.58,693.248,1049.48,695.984C1045.02,692.96,1041.7,689.432,1039.47,685.904ZM1040.34,673.448C1037.31,681.2239999999999,1032.13,688.712,1026.3,693.5360000000001C1027.52,694.256,1029.54,695.84,1030.47,696.704C1032.63,694.688,1034.79,692.312,1036.88,689.648C1038.9,692.672,1041.7,695.696,1045.23,698.432C1039.54,701.456,1032.92,703.472,1026.37,704.696C1027.3,705.704,1028.46,707.648,1028.96,708.8C1036.16,707.288,1043.22,704.912,1049.34,701.312C1054.09,704.336,1059.85,706.784,1066.62,708.3679999999999C1067.26,707.144,1068.63,705.056,1069.64,704.048C1063.52,702.896,1058.19,700.952,1053.66,698.576C1059.2,694.544,1063.74,689.36,1066.47,682.736L1063.38,681.152L1062.37,681.3679999999999L1042.14,681.3679999999999C1043.36,679.208,1044.37,676.976,1045.3,674.744L1040.34,673.448ZM1016.58,673.952C1013.12,685.112,1007.36,696.1279999999999,1001.1,703.328C1002.03,704.696,1003.47,707.576,1003.9,708.8720000000001C1006.28,706.064,1008.51,702.896,1010.67,699.3679999999999L1010.67,739.76L1015.78,739.76L1015.78,689.792C1018.02,685.184,1019.96,680.216,1021.54,675.3199999999999L1016.58,673.952ZM1115,691.88L1129.83,691.88C1128.32,701.312,1126.02,709.304,1122.49,715.928C1118.96,709.16,1116.44,701.24,1114.71,692.672L1115,691.88ZM1077.13,678.56L1077.13,683.888L1097.36,683.888L1097.36,699.152L1078.06,699.152L1078.06,726.5840000000001C1078.06,729.248,1076.91,730.184,1075.83,730.688C1076.77,732.056,1077.63,734.72,1077.99,736.304C1079.65,734.936,1082.31,733.568,1103.26,725.576C1103.05,724.352,1102.69,722.048,1102.62,720.4639999999999L1083.54,727.304L1083.54,704.48L1102.54,704.48L1102.18,704.912C1103.34,705.7760000000001,1105.5,707.864,1106.36,708.8C1108.23,706.28,1109.96,703.4,1111.47,700.232C1113.49,707.936,1116.01,714.992,1119.32,720.968C1115,727.016,1109.24,731.696,1101.61,735.152C1102.69,736.304,1104.27,738.752,1104.85,740.048C1112.19,736.376,1117.95,731.768,1122.49,726.008C1126.45,731.696,1131.42,736.304,1137.54,739.4C1138.4,737.96,1140.06,735.944,1141.35,734.864C1134.94,731.912,1129.83,727.232,1125.73,721.256C1130.48,713.408,1133.5,703.76,1135.45,691.88L1140.2,691.88L1140.2,686.84L1116.73,686.84C1117.95,682.88,1119.03,678.704,1119.9,674.456L1114.57,673.52C1112.34,685.328,1108.38,696.7760000000001,1102.69,704.264L1102.69,678.56L1077.13,678.56ZM1146.82,733.064L1147.83,738.8240000000001C1156.9,737.024,1170.01,734.648,1182.25,732.344L1181.89,726.944L1171.59,728.816L1171.59,700.952L1181.89,700.952L1181.89,695.768L1171.59,695.768L1171.59,673.52L1166.12,673.52L1166.12,729.8240000000001L1157.98,731.192L1157.98,688.136L1152.66,688.136L1152.66,732.1279999999999L1146.82,733.064ZM1185.49,673.52L1185.49,727.52C1185.49,735.3679999999999,1187.36,737.384,1193.98,737.384C1195.42,737.384,1203.49,737.384,1205,737.384C1211.41,737.384,1212.92,733.352,1213.57,721.76C1211.98,721.4,1209.82,720.392,1208.38,719.312C1208.02,729.608,1207.59,732.2,1204.57,732.2C1202.84,732.2,1196.07,732.2,1194.7,732.2C1191.61,732.2,1191.18,731.48,1191.18,727.664L1191.18,705.2719999999999C1198.16,701.888,1205.58,697.712,1211.12,693.608L1206.66,689.216C1202.91,692.6,1197.08,696.56,1191.18,699.8L1191.18,673.52L1185.49,673.52ZM1246.11,674.718C1248.27,678.254,1250.58,683.0889999999999,1251.44,686.048L1257.42,684.1C1256.41,681.141,1253.89,676.4490000000001,1251.73,672.986L1246.11,674.718ZM1219.26,686.192L1219.26,691.52L1230.49,691.52C1234.74,702.472,1240.42,711.9110000000001,1247.84,719.62C1239.92,726.249,1230.2,731.148,1218.25,734.534C1219.33,735.831,1221.06,738.354,1221.63,739.6510000000001C1233.66,735.76,1243.66,730.572,1251.8,723.512C1259.94,730.716,1269.73,736.048,1281.54,739.29C1282.47,737.777,1284.06,735.471,1285.28,734.318C1273.76,731.436,1263.97,726.321,1255.98,719.548C1263.25,712.127,1268.79,702.905,1272.97,691.52L1284.34,691.52L1284.34,686.192L1219.26,686.192ZM1251.94,715.802C1245.18,708.956,1239.85,700.7429999999999,1236.1,691.52L1266.85,691.52C1263.25,701.248,1258.28,709.245,1251.94,715.802ZM1310.48,709.448L1310.48,714.704L1331.14,714.704L1331.14,739.76L1336.54,739.76L1336.54,714.704L1356.27,714.704L1356.27,709.448L1336.54,709.448L1336.54,693.5360000000001L1353.1,693.5360000000001L1353.1,688.28L1336.54,688.28L1336.54,674.384L1331.14,674.384L1331.14,688.28L1321.5,688.28C1322.43,685.04,1323.22,681.5840000000001,1323.94,678.2L1318.76,677.12C1317.1,686.552,1314.08,695.84,1309.9,701.816C1311.2,702.4639999999999,1313.5,703.76,1314.51,704.552C1316.46,701.528,1318.26,697.712,1319.77,693.5360000000001L1331.14,693.5360000000001L1331.14,709.448L1310.48,709.448ZM1306.95,673.808C1303.06,684.6800000000001,1296.73,695.48,1289.96,702.5360000000001C1290.9,703.76,1292.48,706.568,1293.06,707.864C1295.36,705.4159999999999,1297.52,702.5360000000001,1299.68,699.44L1299.68,739.616L1304.86,739.616L1304.86,691.016C1307.6,685.976,1310.05,680.648,1312.06,675.3199999999999L1306.95,673.808ZM1375.28,716.576L1380.03,716.576L1381.47,688.64L1381.62,680.144L1373.7,680.144L1373.84,688.64L1375.28,716.576ZM1377.66,734.36C1380.18,734.36,1382.26,732.488,1382.26,729.608C1382.26,726.7280000000001,1380.18,724.784,1377.66,724.784C1375.14,724.784,1373.05,726.7280000000001,1373.05,729.608C1373.05,732.488,1375.06,734.36,1377.66,734.36ZM274.256,810.2080000000001C270.368,813.952,263.096,817.336,256.688,819.28C257.696,820.144,258.992,821.44,259.712,822.52C266.552,820.216,273.968,816.472,278.36,811.9359999999999L274.256,810.2080000000001ZM281.168,817.336C276.272,822.448,266.768,826.552,257.624,828.64C258.704,829.648,259.784,831.1600000000001,260.432,832.24C270.152,829.576,279.728,825.1120000000001,285.2,819.0640000000001L281.168,817.336ZM287.864,825.1120000000001C281.456,832.528,268.208,837.136,253.736,839.2239999999999C254.816,840.376,255.968,842.248,256.544,843.544C271.808,840.88,285.344,835.696,292.544,827.1279999999999L287.864,825.1120000000001ZM246.032,797.608L246.032,832.384L250.64,832.384L250.64,797.608L246.032,797.608ZM263.816,789.904L283.904,789.904C281.456,793.864,277.928,797.248,273.824,799.984C269.36,796.96,266.048,793.432,263.816,789.904ZM264.68,777.448C261.656,785.2239999999999,256.472,792.712,250.64,797.5360000000001C251.864,798.256,253.88,799.84,254.816,800.704C256.976,798.688,259.136,796.312,261.224,793.648C263.24,796.672,266.048,799.696,269.576,802.432C263.888,805.456,257.264,807.472,250.712,808.696C251.648,809.704,252.8,811.648,253.304,812.8C260.504,811.288,267.56,808.912,273.68,805.312C278.432,808.336,284.192,810.784,290.96,812.3679999999999C291.608,811.144,292.976,809.056,293.984,808.048C287.864,806.896,282.536,804.952,278,802.576C283.544,798.544,288.08,793.36,290.816,786.736L287.72,785.152L286.712,785.3679999999999L266.48,785.3679999999999C267.704,783.208,268.712,780.976,269.648,778.744L264.68,777.448ZM240.92,777.952C237.464,789.112,231.704,800.1279999999999,225.44,807.328C226.376,808.696,227.816,811.576,228.248,812.8720000000001C230.624,810.0640000000001,232.856,806.896,235.016,803.3679999999999L235.016,843.76L240.128,843.76L240.128,793.792C242.36,789.184,244.304,784.216,245.888,779.3199999999999L240.92,777.952ZM339.344,795.88L354.176,795.88C352.664,805.312,350.36,813.304,346.832,819.928C343.304,813.1600000000001,340.784,805.24,339.056,796.672L339.344,795.88ZM301.472,782.56L301.472,787.888L321.704,787.888L321.704,803.152L302.408,803.152L302.408,830.5840000000001C302.408,833.248,301.256,834.184,300.176,834.688C301.112,836.056,301.976,838.72,302.336,840.304C303.992,838.9359999999999,306.656,837.568,327.608,829.576C327.392,828.352,327.032,826.048,326.96,824.4639999999999L307.88,831.304L307.88,808.48L326.888,808.48L326.528,808.912C327.68,809.7760000000001,329.84,811.864,330.704,812.8C332.576,810.28,334.304,807.4,335.816,804.232C337.832,811.9359999999999,340.352,818.992,343.664,824.9680000000001C339.344,831.0160000000001,333.584,835.696,325.952,839.152C327.032,840.304,328.616,842.752,329.192,844.048C336.536,840.376,342.296,835.768,346.832,830.008C350.792,835.696,355.76,840.304,361.88,843.4C362.744,841.96,364.4,839.944,365.696,838.864C359.288,835.912,354.176,831.232,350.072,825.256C354.824,817.408,357.848,807.76,359.792,795.88L364.544,795.88L364.544,790.84L341.072,790.84C342.296,786.88,343.376,782.704,344.24,778.456L338.912,777.52C336.68,789.328,332.72,800.7760000000001,327.032,808.264L327.032,782.56L301.472,782.56ZM384.344,798.688L384.344,803.656L423.512,803.656L423.512,798.688L384.344,798.688ZM372.032,812.0799999999999L372.032,817.12L391.4,817.12C390.536,829.9359999999999,387.584,836.2,371.168,839.3679999999999C372.176,840.448,373.616,842.4639999999999,374.048,843.832C392.048,840.0160000000001,395.864,832.168,396.944,817.12L409.616,817.12L409.616,835.192C409.616,840.952,411.272,842.608,417.968,842.608C419.336,842.608,427.544,842.608,428.984,842.608C434.744,842.608,436.256,840.088,436.904,830.2239999999999C435.464,829.7919999999999,433.16,828.928,431.936,828.0640000000001C431.72,836.344,431.288,837.64,428.552,837.64C426.68,837.64,419.912,837.64,418.472,837.64C415.52,837.64,415.016,837.28,415.016,835.192L415.016,817.12L435.896,817.12L435.896,812.0799999999999L372.032,812.0799999999999ZM398.312,778.456C399.608,780.688,400.976,783.424,401.912,785.8L373.904,785.8L373.904,801.784L379.304,801.784L379.304,790.984L428.336,790.984L428.336,801.784L433.952,801.784L433.952,785.8L408.32,785.8C407.312,783.136,405.44,779.5360000000001,403.712,776.8720000000001L398.312,778.456ZM479.168,777.592C479.168,781.696,479.312,785.8,479.528,789.76L449.216,789.76L449.216,809.992C449.216,819.352,448.568,831.808,442.592,840.664C443.888,841.312,446.192,843.184,447.128,844.264C453.752,834.76,454.832,820.216,454.832,810.0640000000001L454.832,809.56L468.008,809.56C467.72,821.944,467.36,826.552,466.424,827.6320000000001C465.848,828.28,465.2,828.424,464.12,828.424C462.896,828.424,459.8,828.424,456.488,828.0640000000001C457.352,829.432,457.928,831.592,458,833.104C461.528,833.3199999999999,464.84,833.3199999999999,466.712,833.1759999999999C468.656,832.96,469.88,832.456,471.032,831.088C472.544,829.144,472.904,823.024,473.264,806.8240000000001C473.264,806.104,473.336,804.52,473.336,804.52L454.832,804.52L454.832,795.016L479.888,795.016C480.752,806.6800000000001,482.48,817.336,485.216,825.616C480.464,831.088,474.92,835.552,468.512,838.9359999999999C469.664,840.0160000000001,471.608,842.248,472.472,843.4C478.016,840.088,482.984,836.1279999999999,487.376,831.376C490.688,838.7919999999999,495.008,843.256,500.552,843.256C506.096,843.256,508.112,839.656,509.048,827.344C507.608,826.8399999999999,505.592,825.616,504.368,824.392C503.936,833.9680000000001,503.072,837.712,500.984,837.712C497.312,837.712,494.072,833.608,491.408,826.552C496.736,819.64,500.984,811.432,504.08,802L498.68,800.6320000000001C496.376,807.904,493.28,814.456,489.392,820.216C487.52,813.232,486.152,804.664,485.36,795.016L508.472,795.016L508.472,789.76L485.072,789.76C484.856,785.8,484.784,781.768,484.784,777.592L479.168,777.592ZM488.312,781.12C492.92,783.496,498.464,787.168,501.2,789.76L504.584,786.016C501.776,783.568,496.088,780.04,491.552,777.808L488.312,781.12ZM522.872,784L522.872,802.648C522.872,813.808,522.08,829.216,514.304,840.1600000000001C515.6,840.88,517.904,842.752,518.84,843.904C527.12,832.168,528.344,814.672,528.344,802.648L580.688,802.648L580.688,797.4639999999999L528.344,797.4639999999999L528.344,788.5360000000001C544.832,787.456,563.192,785.512,575.72,782.488L571.112,778.096C560.024,780.904,539.936,782.992,522.872,784ZM534.464,812.944L534.464,843.832L539.864,843.832L539.864,840.088L569.744,840.088L569.744,843.688L575.432,843.688L575.432,812.944L534.464,812.944ZM539.864,835.048L539.864,817.9839999999999L569.744,817.9839999999999L569.744,835.048L539.864,835.048ZM595.304,845.704C602.864,843.04,607.76,837.136,607.76,829.36C607.76,824.3199999999999,605.6,821.0799999999999,601.64,821.0799999999999C598.688,821.0799999999999,596.168,822.88,596.168,826.264C596.168,829.648,598.616,831.376,601.568,831.376L602.792,831.232C602.432,836.2,599.264,839.5840000000001,593.72,841.8879999999999L595.304,845.704ZM663.704,782.4159999999999C667.448,785.8,672.2,790.552,674.432,793.576L678.104,789.76C675.872,786.808,670.976,782.344,667.16,779.104L663.704,782.4159999999999ZM659.024,800.1279999999999L659.024,805.312L669.824,805.312L669.824,831.664C669.824,834.832,667.664,836.992,666.368,837.856C667.304,838.9359999999999,668.744,841.168,669.248,842.4639999999999C670.256,840.952,672.128,839.44,684.296,830.0799999999999C683.72,829,682.856,826.912,682.496,825.472L675.008,831.088L675.008,800.1279999999999L659.024,800.1279999999999ZM691.568,822.736L714.176,822.736L714.176,828.64L691.568,828.64L691.568,822.736ZM691.568,818.9200000000001L691.568,813.376L714.176,813.376L714.176,818.9200000000001L691.568,818.9200000000001ZM700.208,777.52L700.208,783.136L683.504,783.136L683.504,787.312L700.208,787.312L700.208,791.92L685.304,791.92L685.304,795.88L700.208,795.88L700.208,800.848L681.344,800.848L681.344,805.024L725.12,805.024L725.12,800.848L705.536,800.848L705.536,795.88L720.728,795.88L720.728,791.92L705.536,791.92L705.536,787.312L722.888,787.312L722.888,783.136L705.536,783.136L705.536,777.52L700.208,777.52ZM686.528,809.2L686.528,843.688L691.568,843.688L691.568,832.6L714.176,832.6L714.176,837.64C714.176,838.504,713.816,838.7919999999999,712.88,838.864C711.872,838.9359999999999,708.416,838.9359999999999,704.744,838.7919999999999C705.464,840.088,706.112,842.104,706.328,843.472C711.44,843.472,714.752,843.472,716.696,842.608C718.784,841.816,719.36,840.376,719.36,837.712L719.36,809.2L686.528,809.2ZM779.048,785.512L779.048,826.192L783.44,826.192L783.44,785.512L779.048,785.512ZM789.488,778.744L789.488,837.64C789.488,838.72,789.128,839.008,788.192,839.008C787.256,839.008,784.232,839.0799999999999,780.776,838.9359999999999C781.496,840.304,782.216,842.4639999999999,782.36,843.76C786.968,843.76,789.92,843.616,791.72,842.8240000000001C793.52,842.0319999999999,794.24,840.592,794.24,837.64L794.24,778.744L789.488,778.744ZM731.168,805.6L731.168,810.568L735.776,810.568L735.776,814.168C735.776,823.096,735.416,833.752,730.808,841.096C731.96,841.6,733.904,842.9680000000001,734.768,843.832C739.664,836.056,740.312,823.672,740.312,814.096L740.312,810.568L747.008,810.568L747.008,837.136C747.008,837.928,746.72,838.216,746,838.216C745.208,838.216,742.904,838.288,740.312,838.216C740.96,839.44,741.536,841.672,741.68,842.9680000000001C745.496,842.9680000000001,747.944,842.8240000000001,749.456,841.96C751.04,841.168,751.544,839.656,751.544,837.2080000000001L751.544,810.568L756.584,810.568L756.584,811.072C756.584,820.576,756.296,832.8879999999999,752.264,841.312C753.344,841.816,755.36,842.9680000000001,756.224,843.688C760.544,834.832,761.12,821.0799999999999,761.12,811L761.12,810.568L767.816,810.568L767.816,837.136C767.816,838,767.528,838.216,766.808,838.288C766.016,838.288,763.712,838.288,761.12,838.216C761.768,839.512,762.344,841.672,762.488,842.9680000000001C766.376,842.9680000000001,768.752,842.8240000000001,770.264,842.0319999999999C771.848,841.168,772.352,839.7280000000001,772.352,837.2080000000001L772.352,810.568L776.096,810.568L776.096,805.6L772.352,805.6L772.352,779.8240000000001L756.584,779.8240000000001L756.584,805.6L751.544,805.6L751.544,779.8240000000001L735.776,779.8240000000001L735.776,805.6L731.168,805.6ZM740.312,784.648L747.008,784.648L747.008,805.6L740.312,805.6L740.312,784.648ZM761.12,784.648L767.816,784.648L767.816,805.6L761.12,805.6L761.12,784.648ZM834.128,822.088C831.68,827.2719999999999,828.008,832.672,824.192,836.4159999999999C825.416,837.136,827.504,838.576,828.368,839.3679999999999C832.04,835.408,836.144,829.216,838.952,823.456L834.128,822.088ZM855.008,823.6C858.824,828.2080000000001,863.288,834.616,865.304,838.72L869.624,836.2C867.536,832.168,863.144,826.048,859.04,821.512L855.008,823.6ZM805.616,780.4L805.616,843.544L810.44,843.544L810.44,785.296L819.728,785.296C818,790.12,815.768,796.528,813.608,801.64C819.152,807.328,820.52,812.2239999999999,820.52,816.184C820.52,818.488,820.088,820.432,818.864,821.2239999999999C818.288,821.7280000000001,817.496,821.8720000000001,816.488,821.944C815.336,822.0160000000001,813.752,822.0160000000001,812.024,821.8C812.816,823.24,813.248,825.256,813.32,826.624C815.048,826.696,816.992,826.696,818.504,826.552C820.016,826.336,821.384,825.904,822.392,825.1120000000001C824.48,823.672,825.344,820.648,825.344,816.688C825.272,812.2239999999999,823.976,807.04,818.432,801.064C821.024,795.376,823.832,788.248,826.064,782.2719999999999L822.608,780.184L821.816,780.4L805.616,780.4ZM826.712,813.1600000000001L826.712,818.1279999999999L845.648,818.1279999999999L845.648,837.496C845.648,838.432,845.36,838.7919999999999,844.208,838.7919999999999C843.2,838.864,839.672,838.864,835.64,838.72C836.504,840.1600000000001,837.224,842.248,837.512,843.688C842.696,843.688,846.008,843.616,848.096,842.752C850.184,841.96,850.832,840.448,850.832,837.496L850.832,818.1279999999999L868.688,818.1279999999999L868.688,813.1600000000001L850.832,813.1600000000001L850.832,804.376L861.92,804.376L861.92,799.624L833.48,799.624L833.48,804.376L845.648,804.376L845.648,813.1600000000001L826.712,813.1600000000001ZM847.592,777.016C842.84,785.656,833.84,794.008,824.768,798.688C826.064,799.696,827.576,801.352,828.368,802.576C835.496,798.472,842.48,792.352,847.808,785.44C853.928,793.072,860.12,797.896,866.528,801.928C867.32,800.4159999999999,868.904,798.688,870.2,797.608C863.504,794.008,856.808,789.184,850.544,781.552L852.2,778.816L847.592,777.016ZM876.392,783.496C880.208,786.88,884.6,791.704,886.616,794.944L891.08,791.7760000000001C888.992,788.5360000000001,884.456,783.856,880.568,780.688L876.392,783.496ZM890.072,804.664L875.528,804.664L875.528,809.704L884.888,809.704L884.888,830.656C881.72,831.808,878.12,834.544,874.592,837.928L878.408,843.184C881.864,839.0799999999999,885.392,835.336,887.84,835.336C889.424,835.336,891.656,837.28,894.68,838.9359999999999C899.648,841.6,905.768,842.3199999999999,914.336,842.3199999999999C921.608,842.3199999999999,933.92,841.8879999999999,939.608,841.528C939.68,839.8,940.616,837.0640000000001,941.264,835.48C933.992,836.344,922.616,836.848,914.48,836.848C906.704,836.848,900.296,836.4159999999999,895.76,833.896C893.168,832.528,891.584,831.304,890.072,830.5840000000001L890.072,804.664ZM895.472,801.136C901.16,805.024,907.424,809.704,913.472,814.384C908.072,819.856,901.304,823.8879999999999,892.88,826.8399999999999C893.888,827.992,895.544,830.3679999999999,896.12,831.592C904.76,828.136,911.888,823.6,917.576,817.624C923.84,822.664,929.456,827.56,933.2,831.376L937.376,827.344C933.344,823.528,927.44,818.6320000000001,920.96,813.664C925.208,808.192,928.52,801.64,930.896,793.864L940.04,793.864L940.04,788.752L916.64,788.752L920.24,787.456C919.304,784.648,916.928,780.328,914.84,777.088L909.656,778.744C911.6,781.84,913.688,785.944,914.624,788.752L893.24,788.752L893.24,793.864L925.208,793.864C923.192,800.344,920.384,805.816,916.784,810.496C910.808,806.0319999999999,904.688,801.568,899.216,797.896L895.472,801.136ZM956.168,820.864L956.168,826.12L1004.77,826.12L1004.77,820.864L956.168,820.864ZM948.032,836.6320000000001L948.032,841.96L1012.04,841.96L1012.04,836.6320000000001L948.032,836.6320000000001ZM951.776,785.44L951.776,810.352L947.024,810.856L947.672,816.184C956.24,815.1759999999999,968.624,813.592,980.288,812.008L980.216,807.04L968.552,808.408L968.552,794.8L979.712,794.8L979.712,789.904L968.552,789.904L968.552,777.52L963.224,777.52L963.224,809.056L956.816,809.7760000000001L956.816,785.44L951.776,785.44ZM1005.06,784.576C1001.17,787.024,995.048,789.688,988.928,791.848L988.928,777.52L983.6,777.52L983.6,805.8879999999999C983.6,812.296,985.4,814.024,992.312,814.024C993.68,814.024,1002.97,814.024,1004.48,814.024C1010.46,814.024,1012.04,811.36,1012.76,801.64C1011.25,801.208,1008.94,800.344,1007.79,799.408C1007.43,807.472,1007,808.912,1004.12,808.912C1002.1,808.912,994.328,808.912,992.816,808.912C989.504,808.912,988.928,808.408,988.928,805.8879999999999L988.928,796.744C995.984,794.5840000000001,1003.62,791.704,1009.3,788.752L1005.06,784.576ZM1057.33,808.192C1059.99,813.376,1063.23,820.36,1064.67,824.752L1069.14,822.592C1067.62,818.2,1064.38,811.504,1061.5,806.3199999999999L1057.33,808.192ZM1073.74,778.384L1073.74,794.08L1055.82,794.08L1055.82,799.12L1073.74,799.12L1073.74,836.848C1073.74,838,1073.31,838.288,1072.23,838.36C1071.15,838.432,1067.77,838.432,1063.88,838.288C1064.67,839.8,1065.39,842.248,1065.68,843.616C1071.01,843.688,1074.18,843.472,1076.19,842.608C1078.14,841.672,1078.93,840.0160000000001,1078.93,836.7760000000001L1078.93,799.12L1085.34,799.12L1085.34,794.08L1078.93,794.08L1078.93,778.384L1073.74,778.384ZM1053.15,777.592C1050.13,788.104,1044.87,798.4,1038.82,805.096C1039.9,806.1759999999999,1041.63,808.48,1042.28,809.56C1044.08,807.472,1045.81,805.096,1047.46,802.432L1047.46,843.4L1052.36,843.4L1052.36,793.576C1054.59,788.896,1056.54,783.928,1058.12,778.888L1053.15,777.592ZM1021.98,780.616L1021.98,843.76L1026.8,843.76L1026.8,785.512L1035.66,785.512C1034.22,790.552,1032.27,797.1759999999999,1030.4,802.504C1035.15,808.408,1036.23,813.592,1036.23,817.552C1036.23,819.928,1035.87,822.0160000000001,1034.86,822.808C1034.36,823.24,1033.57,823.456,1032.78,823.456C1031.77,823.528,1030.47,823.528,1028.96,823.384C1029.82,824.752,1030.18,826.768,1030.18,828.2080000000001C1031.77,828.28,1033.42,828.28,1034.79,828.0640000000001C1036.16,827.9200000000001,1037.38,827.488,1038.32,826.696C1040.26,825.328,1041.06,822.1600000000001,1041.06,818.1279999999999C1041.06,813.52,1039.98,808.12,1035.15,801.928C1037.38,795.952,1039.9,788.5360000000001,1041.78,782.4159999999999L1038.32,780.328L1037.46,780.616L1021.98,780.616ZM1129.18,786.448L1129.18,842.6800000000001L1134.37,842.6800000000001L1134.37,837.352L1148.34,837.352L1148.34,842.104L1153.74,842.104L1153.74,786.448L1129.18,786.448ZM1134.37,832.168L1134.37,791.704L1148.34,791.704L1148.34,832.168L1134.37,832.168ZM1102.04,778.456L1101.97,791.2L1091.82,791.2L1091.82,796.456L1101.82,796.456C1101.32,814.6,1099.09,830.5840000000001,1090.02,840.088C1091.38,840.952,1093.33,842.608,1094.19,843.832C1103.91,833.248,1106.43,815.9680000000001,1107.08,796.456L1118.02,796.456C1117.45,824.1759999999999,1116.8,834.04,1115.29,836.1279999999999C1114.64,837.0640000000001,1113.92,837.352,1112.84,837.28C1111.54,837.28,1108.45,837.28,1105.06,836.992C1106,838.504,1106.5,840.808,1106.65,842.392C1109.89,842.608,1113.2,842.6800000000001,1115.22,842.392C1117.3,842.104,1118.67,841.456,1119.97,839.5840000000001C1122.2,836.488,1122.7,825.976,1123.28,793.936C1123.28,793.144,1123.28,791.2,1123.28,791.2L1107.22,791.2L1107.37,778.456L1102.04,778.456ZM1187.5,799.768L1187.5,804.232L1222.57,804.232L1222.57,799.768L1187.5,799.768ZM1187.5,809.992L1187.5,814.384L1222.57,814.384L1222.57,809.992L1187.5,809.992ZM1182.32,789.4L1182.32,794.008L1228.18,794.008L1228.18,789.4L1182.32,789.4ZM1198.95,779.3199999999999C1200.9,782.344,1203.06,786.448,1204.06,789.04L1208.89,786.88C1207.88,784.36,1205.72,780.472,1203.63,777.52L1198.95,779.3199999999999ZM1186.57,820.504L1186.57,843.76L1191.25,843.76L1191.25,840.88L1218.39,840.88L1218.39,843.544L1223.29,843.544L1223.29,820.504L1186.57,820.504ZM1191.25,836.4159999999999L1191.25,824.9680000000001L1218.39,824.9680000000001L1218.39,836.4159999999999L1191.25,836.4159999999999ZM1178.43,777.808C1174.76,788.6800000000001,1168.78,799.48,1162.3,806.5360000000001C1163.24,807.76,1164.82,810.424,1165.33,811.576C1167.7,808.912,1170.01,805.744,1172.17,802.36L1172.17,843.976L1177.14,843.976L1177.14,793.648C1179.51,789.04,1181.6,784.144,1183.26,779.248L1178.43,777.808ZM1251.15,798.4L1284.56,798.4L1284.56,804.1600000000001L1251.15,804.1600000000001L1251.15,798.4ZM1251.15,808.336L1284.56,808.336L1284.56,814.168L1251.15,814.168L1251.15,808.336ZM1251.15,788.5360000000001L1284.56,788.5360000000001L1284.56,794.296L1251.15,794.296L1251.15,788.5360000000001ZM1250.86,823.456L1250.86,835.192C1250.86,840.952,1253.1,842.4639999999999,1261.45,842.4639999999999C1263.18,842.4639999999999,1276.21,842.4639999999999,1278.01,842.4639999999999C1284.99,842.4639999999999,1286.79,840.304,1287.51,831.088C1286,830.8,1283.7,830.008,1282.47,829.144C1282.11,836.488,1281.54,837.496,1277.65,837.496C1274.77,837.496,1263.9,837.496,1261.74,837.496C1257.13,837.496,1256.26,837.136,1256.26,835.12L1256.26,823.456L1250.86,823.456ZM1286.94,824.1759999999999C1290.25,828.712,1293.7,834.904,1294.93,838.864L1300.04,836.56C1298.67,832.6,1295.14,826.552,1291.76,822.1600000000001L1286.94,824.1759999999999ZM1242.66,823.312C1240.93,827.848,1238.12,834.04,1235.24,838L1240.21,840.376C1242.87,836.2,1245.46,829.864,1247.26,825.328L1242.66,823.312ZM1262.17,820.72C1265.84,824.104,1270.02,828.928,1271.82,832.168L1276.21,829.432C1274.26,826.336,1270.16,821.7280000000001,1266.42,818.488L1289.96,818.488L1289.96,784.216L1268.43,784.216C1269.51,782.344,1270.74,780.112,1271.82,777.88L1265.48,776.8C1264.9,778.888,1263.75,781.84,1262.82,784.216L1245.97,784.216L1245.97,818.488L1266.06,818.488L1262.17,820.72ZM1317.97,820.432C1311.99,820.432,1307.02,825.328,1307.02,831.376C1307.02,837.496,1311.99,842.392,1317.97,842.392C1324.09,842.392,1328.98,837.496,1328.98,831.376C1328.98,825.328,1324.09,820.432,1317.97,820.432ZM1317.97,838.72C1314.01,838.72,1310.7,835.48,1310.7,831.376C1310.7,827.4159999999999,1314.01,824.104,1317.97,824.104C1322.07,824.104,1325.31,827.4159999999999,1325.31,831.376C1325.31,835.48,1322.07,838.72,1317.97,838.72ZM476.992,911.1759999999999L476.992,934.344L522.432,934.344L522.432,937.992L527.616,937.992L527.616,911.1759999999999L522.432,911.1759999999999L522.432,929.544L504.832,929.544L504.832,907.144L525.056,907.144L525.056,885L519.872,885L519.872,902.472L504.832,902.472L504.832,879.304L499.584,879.304L499.584,902.472L484.928,902.472L484.928,885.0640000000001L479.936,885.0640000000001L479.936,907.144L499.584,907.144L499.584,929.544L482.304,929.544L482.304,911.1759999999999L476.992,911.1759999999999ZM561.6,893.832C560.384,902.856,558.144,910.216,555.072,916.232C552.448,911.88,550.336,906.312,548.736,899.2080000000001C549.312,897.48,549.888,895.688,550.464,893.832L561.6,893.832ZM548.416,879.496C546.688,892.04,542.72,904.136,537.664,910.7919999999999C538.944,911.432,540.672,912.712,541.568,913.48C543.232,911.24,544.768,908.552,546.176,905.48C547.904,911.624,550.016,916.616,552.512,920.5840000000001C548.288,926.9200000000001,542.912,931.4,536.512,934.472C537.728,935.1759999999999,539.648,937.096,540.48,938.184C546.368,935.1759999999999,551.424,930.8240000000001,555.584,924.8720000000001C563.392,934.088,573.696,936.136,584.704,936.136L594.112,936.136C594.432,934.7280000000001,595.264,932.36,596.096,931.144C593.6,931.2080000000001,586.944,931.2080000000001,584.96,931.2080000000001C575.104,931.2080000000001,565.44,929.4159999999999,558.208,920.712C562.56,912.904,565.568,902.9200000000001,566.976,890.12L563.84,889.2239999999999L562.88,889.4159999999999L551.616,889.4159999999999C552.32,886.6,552.96,883.656,553.472,880.712L548.416,879.496ZM573.696,879.3679999999999L573.696,926.472L578.816,926.472L578.816,899.72C583.168,904.7760000000001,587.84,910.7919999999999,590.08,914.76L594.304,912.136C591.424,907.528,585.344,900.296,580.48,894.9839999999999L578.816,895.944L578.816,879.3679999999999L573.696,879.3679999999999ZM607.232,908.04C609.536,908.04,611.456,906.248,611.456,903.56C611.456,900.9359999999999,609.536,899.0799999999999,607.232,899.0799999999999C604.864,899.0799999999999,603.008,900.9359999999999,603.008,903.56C603.008,906.248,604.864,908.04,607.232,908.04ZM607.232,933.832C609.536,933.832,611.456,932.04,611.456,929.4159999999999C611.456,926.7280000000001,609.536,924.9359999999999,607.232,924.9359999999999C604.864,924.9359999999999,603.008,926.7280000000001,603.008,929.4159999999999C603.008,932.04,604.864,933.832,607.232,933.832ZM636.928,933L642.816,933L642.816,910.856L664.704,910.856L664.704,933L670.656,933L670.656,886.088L664.704,886.088L664.704,905.736L642.816,905.736L642.816,886.088L636.928,886.088L636.928,933ZM696.448,933.832C704.96,933.832,712.512,927.1759999999999,712.512,915.656C712.512,904.072,704.96,897.352,696.448,897.352C687.936,897.352,680.384,904.072,680.384,915.656C680.384,927.1759999999999,687.936,933.832,696.448,933.832ZM696.448,928.9680000000001C690.432,928.9680000000001,686.4,923.656,686.4,915.656C686.4,907.656,690.432,902.28,696.448,902.28C702.464,902.28,706.56,907.656,706.56,915.656C706.56,923.656,702.464,928.9680000000001,696.448,928.9680000000001ZM721.728,933L727.616,933L727.616,907.784C730.752,904.2,733.696,902.472,736.32,902.472C740.736,902.472,742.784,905.2239999999999,742.784,911.752L742.784,933L748.608,933L748.608,907.784C751.872,904.2,754.688,902.472,757.376,902.472C761.792,902.472,763.84,905.2239999999999,763.84,911.752L763.84,933L769.664,933L769.664,910.9839999999999C769.664,902.152,766.272,897.352,759.168,897.352C754.88,897.352,751.296,900.104,747.648,904.008C746.24,899.912,743.424,897.352,738.048,897.352C733.888,897.352,730.304,899.976,727.232,903.304L727.104,903.304L726.528,898.248L721.728,898.248L721.728,933ZM795.072,933.832C799.744,933.832,803.456,932.296,806.464,930.312L804.416,926.408C801.792,928.136,799.104,929.1600000000001,795.712,929.1600000000001C789.12,929.1600000000001,784.576,924.424,784.192,917L807.616,917C807.744,916.104,807.872,914.952,807.872,913.672C807.872,903.752,802.88,897.352,793.984,897.352C786.048,897.352,778.432,904.328,778.432,915.656C778.432,927.1120000000001,785.792,933.832,795.072,933.832ZM784.128,912.8399999999999C784.832,905.928,789.184,902.024,794.112,902.024C799.552,902.024,802.752,905.8,802.752,912.8399999999999L784.128,912.8399999999999ZM816.448,947.656L822.336,947.656L822.336,935.88L822.144,929.8C825.28,932.424,828.608,933.832,831.744,933.832C839.68,933.832,846.848,926.9839999999999,846.848,915.0799999999999C846.848,904.328,841.984,897.352,833.024,897.352C828.992,897.352,825.088,899.656,821.952,902.28L821.824,902.28L821.248,898.248L816.448,898.248L816.448,947.656ZM830.784,928.904C828.48,928.904,825.408,928.008,822.336,925.3199999999999L822.336,907.0160000000001C825.664,903.944,828.672,902.28,831.552,902.28C838.208,902.28,840.768,907.4,840.768,915.144C840.768,923.72,836.544,928.904,830.784,928.904ZM863.104,933.832C867.392,933.832,871.296,931.592,874.624,928.8399999999999L874.816,928.8399999999999L875.328,933L880.128,933L880.128,911.624C880.128,902.9839999999999,876.608,897.352,868.096,897.352C862.464,897.352,857.6,899.848,854.464,901.896L856.704,905.928C859.456,904.072,863.104,902.216,867.136,902.216C872.832,902.216,874.304,906.504,874.304,910.9839999999999C859.52,912.648,852.992,916.424,852.992,923.976C852.992,930.248,857.28,933.832,863.104,933.832ZM864.768,929.096C861.312,929.096,858.624,927.56,858.624,923.592C858.624,919.1120000000001,862.592,916.232,874.304,914.8879999999999L874.304,924.552C870.912,927.56,868.096,929.096,864.768,929.096ZM902.848,949C913.6,949,920.448,943.432,920.448,936.9680000000001C920.448,931.2080000000001,916.352,928.712,908.352,928.712L901.504,928.712C896.832,928.712,895.424,927.1120000000001,895.424,924.9359999999999C895.424,923.0160000000001,896.384,921.864,897.664,920.7760000000001C899.2,921.544,901.12,921.992,902.784,921.992C909.952,921.992,915.52,917.3199999999999,915.52,909.896C915.52,906.8879999999999,914.368,904.328,912.704,902.7280000000001L919.808,902.7280000000001L919.808,898.248L907.712,898.248C906.496,897.736,904.768,897.352,902.784,897.352C895.808,897.352,889.792,902.152,889.792,909.768C889.792,913.928,892.032,917.3199999999999,894.336,919.1120000000001L894.336,919.3679999999999C892.48,920.648,890.496,922.952,890.496,925.832C890.496,928.5840000000001,891.84,930.44,893.632,931.528L893.632,931.848C890.368,933.832,888.512,936.712,888.512,939.72C888.512,945.672,894.4,949,902.848,949ZM902.784,918.024C898.816,918.024,895.424,914.8240000000001,895.424,909.768C895.424,904.648,898.752,901.64,902.784,901.64C906.944,901.64,910.208,904.648,910.208,909.768C910.208,914.8240000000001,906.816,918.024,902.784,918.024ZM903.68,944.9680000000001C897.344,944.9680000000001,893.632,942.6,893.632,938.8879999999999C893.632,936.904,894.656,934.7919999999999,897.152,933C898.688,933.384,900.352,933.512,901.632,933.512L907.648,933.512C912.256,933.512,914.688,934.664,914.688,937.928C914.688,941.512,910.4,944.9680000000001,903.68,944.9680000000001ZM940.352,933.832C945.024,933.832,948.736,932.296,951.744,930.312L949.696,926.408C947.072,928.136,944.384,929.1600000000001,940.992,929.1600000000001C934.4,929.1600000000001,929.856,924.424,929.472,917L952.896,917C953.024,916.104,953.152,914.952,953.152,913.672C953.152,903.752,948.16,897.352,939.264,897.352C931.328,897.352,923.712,904.328,923.712,915.656C923.712,927.1120000000001,931.072,933.832,940.352,933.832ZM929.408,912.8399999999999C930.112,905.928,934.464,902.024,939.392,902.024C944.832,902.024,948.032,905.8,948.032,912.8399999999999L929.408,912.8399999999999ZM976.64,933L982.528,933L982.528,914.312L990.272,914.312C1000.58,914.312,1007.55,909.768,1007.55,899.848C1007.55,889.608,1000.51,886.088,990.016,886.088L976.64,886.088L976.64,933ZM982.528,909.512L982.528,890.8879999999999L989.248,890.8879999999999C997.504,890.8879999999999,1001.66,893,1001.66,899.848C1001.66,906.568,997.76,909.512,989.504,909.512L982.528,909.512ZM1022.72,933.832C1024.32,933.832,1025.28,933.576,1026.11,933.3199999999999L1025.28,928.8399999999999C1024.64,928.9680000000001,1024.38,928.9680000000001,1024.06,928.9680000000001C1023.17,928.9680000000001,1022.46,928.264,1022.46,926.472L1022.46,882.056L1016.58,882.056L1016.58,926.088C1016.58,931.0160000000001,1018.37,933.832,1022.72,933.832ZM1042.75,933.832C1047.04,933.832,1050.94,931.592,1054.27,928.8399999999999L1054.46,928.8399999999999L1054.98,933L1059.78,933L1059.78,911.624C1059.78,902.9839999999999,1056.26,897.352,1047.74,897.352C1042.11,897.352,1037.25,899.848,1034.11,901.896L1036.35,905.928C1039.1,904.072,1042.75,902.216,1046.78,902.216C1052.48,902.216,1053.95,906.504,1053.95,910.9839999999999C1039.17,912.648,1032.64,916.424,1032.64,923.976C1032.64,930.248,1036.93,933.832,1042.75,933.832ZM1044.42,929.096C1040.96,929.096,1038.27,927.56,1038.27,923.592C1038.27,919.1120000000001,1042.24,916.232,1053.95,914.8879999999999L1053.95,924.552C1050.56,927.56,1047.74,929.096,1044.42,929.096ZM1067.14,933L1093.44,933L1093.44,928.264L1074.5,928.264L1092.86,901.384L1092.86,898.248L1069.12,898.248L1069.12,902.9839999999999L1085.44,902.9839999999999L1067.14,929.864L1067.14,933ZM1107.52,933.832C1111.81,933.832,1115.71,931.592,1119.04,928.8399999999999L1119.23,928.8399999999999L1119.74,933L1124.54,933L1124.54,911.624C1124.54,902.9839999999999,1121.02,897.352,1112.51,897.352C1106.88,897.352,1102.02,899.848,1098.88,901.896L1101.12,905.928C1103.87,904.072,1107.52,902.216,1111.55,902.216C1117.25,902.216,1118.72,906.504,1118.72,910.9839999999999C1103.94,912.648,1097.41,916.424,1097.41,923.976C1097.41,930.248,1101.7,933.832,1107.52,933.832ZM1109.18,929.096C1105.73,929.096,1103.04,927.56,1103.04,923.592C1103.04,919.1120000000001,1107.01,916.232,1118.72,914.8879999999999L1118.72,924.552C1115.33,927.56,1112.51,929.096,1109.18,929.096Z" fill="#FFFFFF" fill-opacity="1"/></g></g></g></svg>
